<?xml version="1.0" standalone="no"?>
<!DOCTYPE svg PUBLIC "-//W3C//DTD SVG 20010904//EN"
 "http://www.w3.org/TR/2001/REC-SVG-20010904/DTD/svg10.dtd">
<svg version="1.0" xmlns="http://www.w3.org/2000/svg"
 width="140.000000pt" height="140.000000pt" viewBox="0 0 140.000000 140.000000"
 preserveAspectRatio="xMidYMid meet">
<metadata>
Created by potrace 1.14, written by Peter Selinger 2001-2017
</metadata>
<g transform="translate(0.000000,140.000000) scale(0.100000,-0.100000)"
fill="#000000" stroke="none">
<path d="M11 1237 c-24 -24 -32 -7 209 -417 56 -96 114 -195 128 -220 14 -25
43 -73 64 -108 21 -34 38 -64 38 -67 0 -2 33 -60 73 -127 40 -68 88 -150 107
-183 37 -66 46 -75 75 -75 22 0 62 67 637 1056 32 55 58 107 58 116 0 22 -26
41 -47 34 -16 -5 -89 -117 -143 -221 -9 -16 -23 -41 -32 -55 -8 -14 -78 -133
-155 -265 -77 -132 -167 -285 -199 -340 -33 -55 -63 -109 -69 -120 -7 -14 -11
139 -13 481 -2 548 -2 541 -57 516 l-25 -11 -2 -503 -3 -502 -52 89 c-28 50
-61 108 -73 130 -12 22 -89 152 -170 290 -81 137 -160 273 -176 302 -63 112
-118 203 -123 204 -3 0 -13 2 -23 4 -9 2 -21 -2 -27 -8z"/>
</g>
</svg>
